# xmcd CD database file
#
# Track frame offsets:
#	150
#	26556
#	48602
#	60696
#	77241
#	93594
#	114260
#	141095
#	156863
#	173522
#	187891
#	199595
#	212334
#	223791
#
# Disc length: 3185 seconds
#
# Revision: 1
# Processed by: cddbd v1.5.2PL0 Copyright (c) Steve Scherf et al.
# Submitted via: CDex 1.50beta8
#
DISCID=bc0c6f0e
DTITLE=Religijne - Chrystus Pan - Schola Misericordias-Niepojeta tajemnica
DYEAR=2003
DGENRE=Religious
TTITLE0=Niepojeta tajemnica
TTITLE1=Mi³osierdzie Boze
TTITLE2=Jam nie godzien
TTITLE3=Otworz swe serce
TTITLE4=Nie ma problemu
TTITLE5=Chrystus Pan
TTITLE6=Wielbie cie
TTITLE7=Sercem kocham Jezusa
TTITLE8=Nic nas odlaczyc nie moze
TTITLE9=Moj Pan
TTITLE10=Jezus Panem mym
TTITLE11=O Boze, dzieki Ci skladamy
TTITLE12=Alleluja - Ps 118
TTITLE13=Aniol Stroz
EXTD=YEAR: 2003
EXTT0=
EXTT1=
EXTT2=
EXTT3=
EXTT4=
EXTT5=
EXTT6=
EXTT7=
EXTT8=
EXTT9=
EXTT10=
EXTT11=
EXTT12=
EXTT13=
PLAYORDER=
